<?xml version="1.0" encoding="UTF-8" standalone="no"?>
<svg
   xmlns:dc="http://purl.org/dc/elements/1.1/"
   xmlns:cc="http://creativecommons.org/ns#"
   xmlns:rdf="http://www.w3.org/1999/02/22-rdf-syntax-ns#"
   xmlns:svg="http://www.w3.org/2000/svg"
   xmlns="http://www.w3.org/2000/svg"
   id="svg16"
   version="1.1"
   viewBox="0 0 536 108"
   height="108"
   width="536">
  <metadata
     id="metadata22">
    <rdf:RDF>
      <cc:Work
         rdf:about="">
        <dc:format>image/svg+xml</dc:format>
        <dc:type
           rdf:resource="http://purl.org/dc/dcmitype/StillImage" />
        <dc:title></dc:title>
      </cc:Work>
    </rdf:RDF>
  </metadata>
  <defs
     id="defs20" />
  <g
     style="display:inline"
     id="layer1">
    <g
       transform="matrix(3.5,0,0,3.5,40,15)"
       fill="none"
       fill-rule="evenodd"
       id="g14">
      <path
         fill="#FFF"
         d="m 76,0 0.745,1.49 A 9.953,9.953 0 0 1 82,0 h 0.061 c 2.094,0 3.868,0.418 5.335,1.202 0.747,0.4 1.412,0.894 1.989,1.477 L 85.808,5.661 A 3.677,3.677 0 0 0 84.954,5.034 C 84.356,4.714 83.68,4.532 82.656,4.504 L 82.368,4.5 h -0.399 c -1.046,0 -1.934,0.209 -2.667,0.601 A 4.089,4.089 0 0 0 77.601,6.802 C 77.248,7.462 77.044,8.247 77.006,9.16 L 77,9.47 V 22.002 L 72,22 V 0 Z M 4,0 4.745,1.49 A 9.953,9.953 0 0 1 10,0 h 0.061 c 2.094,0 3.868,0.418 5.335,1.202 a 8.178,8.178 0 0 1 3.402,3.402 C 19.582,6.071 20,7.845 20,9.94 V 22 H 15 V 9.47 C 15,8.527 14.83,7.714 14.511,7.027 L 14.399,6.802 A 4.089,4.089 0 0 0 12.698,5.101 C 12.038,4.748 11.253,4.544 10.34,4.506 L 10.03,4.5 H 9.97 C 8.923,4.5 8.035,4.709 7.302,5.101 A 4.089,4.089 0 0 0 5.601,6.802 C 5.248,7.462 5.044,8.247 5.006,9.16 L 5,9.47 V 22 H 0 V 0 Z m 97.061,0 c 2.094,0 3.868,0.418 5.335,1.202 a 8.178,8.178 0 0 1 3.402,3.402 C 110.582,6.071 111,7.845 111,9.94 v 2.122 c 0,2.094 -0.418,3.868 -1.202,5.335 a 8.178,8.178 0 0 1 -3.402,3.402 c -1.467,0.784 -3.241,1.202 -5.335,1.202 h -0.122 c -2.094,0 -3.868,-0.418 -5.335,-1.202 A 8.178,8.178 0 0 1 92.202,17.397 C 91.418,15.929 91,14.155 91,12.06 V 9.94 C 91,7.846 91.418,6.072 92.202,4.605 A 8.178,8.178 0 0 1 95.604,1.203 C 97.071,0.418 98.845,0 100.94,0 h 0.122 z m -68,0 c 2.094,0 3.868,0.418 5.335,1.202 a 8.178,8.178 0 0 1 3.402,3.402 C 42.582,6.071 43,7.845 43,9.94 v 2.122 c 0,0.321 -0.01,0.635 -0.03,0.94 L 28,13 a 4.5,4.5 0 0 0 4.5,4.5 h 1 c 1.566,0 2.945,-0.8 3.751,-2.013 0.082,0.009 0.165,0.013 0.249,0.013 h 5 l 0.057,-0.002 a 9.481,9.481 0 0 1 -0.76,1.898 8.178,8.178 0 0 1 -3.401,3.402 C 36.929,21.582 35.155,22 33.06,22 H 32.938 C 30.844,22 29.07,21.582 27.603,20.798 A 8.178,8.178 0 0 1 24.201,17.396 C 23.418,15.929 23,14.155 23,12.06 V 9.94 C 23,7.846 23.418,6.072 24.202,4.605 A 8.178,8.178 0 0 1 27.604,1.203 C 29.071,0.418 30.845,0 32.94,0 h 0.122 z M 51,0 v 12.53 l 0.006,0.31 c 0.038,0.913 0.242,1.698 0.595,2.358 a 4.089,4.089 0 0 0 1.701,1.701 c 0.733,0.392 1.62,0.601 2.667,0.601 h 0.062 l 0.309,-0.006 c 0.913,-0.038 1.698,-0.242 2.358,-0.595 a 4.089,4.089 0 0 0 1.701,-1.701 l 0.112,-0.225 C 60.831,14.286 61,13.473 61,12.531 V 0 h 5 V 22 H 62 L 61.256,20.51 A 9.953,9.953 0 0 1 56,22 h -0.061 c -2.094,0 -3.868,-0.418 -5.335,-1.202 A 8.178,8.178 0 0 1 47.202,17.396 C 46.418,15.929 46,14.155 46,12.06 V 0 Z m 50.03,4.5 h -0.06 c -1.047,0 -1.935,0.209 -2.668,0.601 A 4.089,4.089 0 0 0 96.601,6.802 C 96.248,7.462 96.044,8.247 96.006,9.16 L 96,9.47 v 3.06 c 0,1.047 0.209,1.935 0.601,2.668 a 4.089,4.089 0 0 0 1.701,1.701 c 0.66,0.353 1.445,0.557 2.358,0.595 l 0.31,0.006 h 0.06 c 1.047,0 1.935,-0.209 2.668,-0.601 a 4.089,4.089 0 0 0 1.701,-1.701 c 0.353,-0.66 0.557,-1.445 0.595,-2.358 L 106,12.53 V 9.47 c 0,-1.047 -0.209,-1.935 -0.601,-2.668 A 4.089,4.089 0 0 0 103.698,5.101 C 102.965,4.709 102.078,4.5 101.031,4.5 Z m -67.53,0 h -1 A 4.5,4.5 0 0 0 28.005,8.788 L 28,9 H 38 L 37.995,8.788 A 4.5,4.5 0 0 0 33.5,4.5 Z"
         id="path10" />
      <path
         fill="#FF002B"
         d="m 114,22 h 20 v 4.5 h -20 z"
         id="path12" />
    </g>
  </g>
</svg>
